<svg width="15" height="20" viewBox="0 0 15 20" fill="none" xmlns="http://www.w3.org/2000/svg">
<path d="M4.07525 11.0583C4.07525 11.0583 0.392469 12.3069 0.0463064 11.1723C-0.537499 9.25876 4.59175 5.67763 4.59175 5.67763C4.59038 5.67763 7.416 -0.112352 8.88719 0.001662C9.9037 0.0813343 10.1853 1.46873 10.7787 3.94269C10.7787 3.94269 11.5988 4.03198 12.5398 4.65975C12.5398 4.65975 13.7486 3.2751 14.4382 3.50175C15.4162 3.82319 14.6662 9.30684 14.6662 9.30684C14.9533 12.2671 14.8145 14.1174 14.1593 14.366C13.6291 14.5666 12.629 13.7232 12.629 13.7232C9.48473 19.5049 7.20445 19.5983 6.7223 19.3648C6.00387 19.0159 6.35278 16.9856 6.35278 16.9856C6.35278 16.9856 3.02578 20.5132 1.6686 19.9362C1.6686 19.9362 -0.611677 19.0585 4.07525 11.0583Z" fill="#FF8133"/>
</svg>
